<svg width="1440" height="360" viewBox="0 0 1629 427" fill="none" xmlns="http://www.w3.org/2000/svg">
<path d="M1531.21 68.2557C1524.4 89.0334 1478.36 171.243 1456.19 209.751C1448.68 322.921 1668.5 278.625 1611.57 209.751C1554.64 140.877 1539.72 42.2837 1531.21 68.2557Z" fill="#FFFCC1" fill-opacity="0.75"/>
<path d="M1619.91 227.087C1538.19 286.253 1490.51 216.348 1476.89 174L1456 209.851C1456 271.252 1488.7 382.678 1557.71 358.664C1640.33 329.915 1635.34 252.491 1619.91 227.087Z" fill="#A30505" fill-opacity="0.16"/>
<path d="M1532 360.57C1477.17 309.4 1472.72 216.869 1477.34 177C1473.04 180.056 1461.18 200.613 1455.78 210.509C1399.58 291.237 1482.73 367.425 1532 360.57Z" fill="#FFB4B4" fill-opacity="0.57"/>
<path d="M18.419 344V110.72H69.107C86.387 110.72 100.019 113.408 110.003 118.784C120.179 123.968 127.379 131.84 131.603 142.4C136.019 152.96 138.227 166.112 138.227 181.856V267.68C138.227 284.192 136.019 298.112 131.603 309.44C127.379 320.768 120.371 329.408 110.579 335.36C100.979 341.12 88.019 344 71.699 344H18.419ZM50.963 320.672H69.395C81.299 320.672 89.747 318.368 94.739 313.76C99.731 309.152 102.707 302.432 103.667 293.6C104.819 284.768 105.395 274.112 105.395 261.632V185.888C105.395 173.792 104.627 164 103.091 156.512C101.555 149.024 98.195 143.552 93.011 140.096C87.827 136.64 79.667 134.912 68.531 134.912H50.963V320.672ZM184.694 344V110.72H231.638C247.19 110.72 260.054 112.832 270.23 117.056C280.406 121.088 287.894 127.712 292.694 136.928C297.686 145.952 300.182 157.856 300.182 172.64C300.182 181.664 299.222 189.92 297.302 197.408C295.382 204.704 292.31 210.944 288.086 216.128C283.862 221.12 278.294 224.768 271.382 227.072L304.502 344H273.11L242.582 234.56H217.238V344H184.694ZM217.238 211.232H229.622C238.838 211.232 246.326 210.08 252.086 207.776C257.846 205.472 262.07 201.536 264.758 195.968C267.446 190.4 268.79 182.624 268.79 172.64C268.79 159.008 266.294 149.216 261.302 143.264C256.31 137.12 246.422 134.048 231.638 134.048H217.238V211.232ZM350.166 344V110.72H382.134V344H350.166ZM434.275 344V110.72H456.451L522.691 265.664V110.72H549.763V344H529.027L461.923 184.736V344H434.275ZM600.832 344V110.72H633.376V220.736L686.944 110.72H717.184L671.104 213.536L724.672 344H692.992L648.352 234.56L633.376 261.632V344H600.832ZM757.825 344V110.72H808.513C825.793 110.72 839.425 113.408 849.409 118.784C859.585 123.968 866.785 131.84 871.009 142.4C875.425 152.96 877.633 166.112 877.633 181.856V267.68C877.633 284.192 875.425 298.112 871.009 309.44C866.785 320.768 859.777 329.408 849.985 335.36C840.385 341.12 827.425 344 811.105 344H757.825ZM790.369 320.672H808.801C820.705 320.672 829.153 318.368 834.145 313.76C839.137 309.152 842.113 302.432 843.073 293.6C844.225 284.768 844.801 274.112 844.801 261.632V185.888C844.801 173.792 844.033 164 842.497 156.512C840.961 149.024 837.601 143.552 832.417 140.096C827.233 136.64 819.073 134.912 807.937 134.912H790.369V320.672ZM924.1 344V110.72H971.044C986.596 110.72 999.46 112.832 1009.64 117.056C1019.81 121.088 1027.3 127.712 1032.1 136.928C1037.09 145.952 1039.59 157.856 1039.59 172.64C1039.59 181.664 1038.63 189.92 1036.71 197.408C1034.79 204.704 1031.72 210.944 1027.49 216.128C1023.27 221.12 1017.7 224.768 1010.79 227.072L1043.91 344H1012.52L981.988 234.56H956.644V344H924.1ZM956.644 211.232H969.028C978.244 211.232 985.732 210.08 991.492 207.776C997.252 205.472 1001.48 201.536 1004.16 195.968C1006.85 190.4 1008.2 182.624 1008.2 172.64C1008.2 159.008 1005.7 149.216 1000.71 143.264C995.716 137.12 985.828 134.048 971.044 134.048H956.644V211.232ZM1147.46 346.592C1131.72 346.592 1119.14 343.52 1109.73 337.376C1100.32 331.232 1093.6 322.496 1089.57 311.168C1085.54 299.648 1083.52 286.208 1083.52 270.848V182.432C1083.52 167.072 1085.54 153.92 1089.57 142.976C1093.8 131.84 1100.52 123.392 1109.73 117.632C1119.14 111.68 1131.72 108.704 1147.46 108.704C1163.2 108.704 1175.68 111.68 1184.9 117.632C1194.12 123.584 1200.74 132.032 1204.77 142.976C1209 153.92 1211.11 167.072 1211.11 182.432V271.136C1211.11 286.304 1209 299.552 1204.77 310.88C1200.74 322.208 1194.12 331.04 1184.9 337.376C1175.68 343.52 1163.2 346.592 1147.46 346.592ZM1147.46 320.96C1156.1 320.96 1162.63 319.232 1167.04 315.776C1171.46 312.128 1174.44 307.136 1175.97 300.8C1177.51 294.272 1178.28 286.688 1178.28 278.048V175.808C1178.28 167.168 1177.51 159.776 1175.97 153.632C1174.44 147.296 1171.46 142.496 1167.04 139.232C1162.63 135.776 1156.1 134.048 1147.46 134.048C1138.82 134.048 1132.2 135.776 1127.59 139.232C1123.17 142.496 1120.2 147.296 1118.66 153.632C1117.12 159.776 1116.36 167.168 1116.36 175.808V278.048C1116.36 286.688 1117.12 294.272 1118.66 300.8C1120.2 307.136 1123.17 312.128 1127.59 315.776C1132.2 319.232 1138.82 320.96 1147.46 320.96ZM1257.49 344V110.72H1315.38C1329.4 110.72 1340.53 113.312 1348.79 118.496C1357.24 123.488 1363.38 130.784 1367.22 140.384C1371.06 149.984 1372.98 161.6 1372.98 175.232C1372.98 187.52 1370.77 198.176 1366.36 207.2C1362.13 216.224 1355.8 223.232 1347.35 228.224C1338.9 233.024 1328.34 235.424 1315.67 235.424H1290.04V344H1257.49ZM1290.04 212.096H1305.01C1314.42 212.096 1321.81 211.04 1327.19 208.928C1332.57 206.816 1336.41 203.168 1338.71 197.984C1341.01 192.608 1342.17 185.12 1342.17 175.52C1342.17 164.384 1341.3 155.84 1339.57 149.888C1338.04 143.936 1334.68 139.808 1329.49 137.504C1324.31 135.2 1316.25 134.048 1305.3 134.048H1290.04V212.096Z" fill="black"/>
</svg>
